<svg xmlns="http://www.w3.org/2000/svg" viewBox="0 0 800 400">
  <rect width="800" height="400" fill="#f0f4ff" rx="12"/>
  <!-- Back document -->
  <rect x="290" y="50" width="260" height="320" rx="14" fill="#93c5fd" opacity="0.5"/>
  <!-- Middle document -->
  <rect x="260" y="40" width="260" height="320" rx="14" fill="#bfdbfe"/>
  <!-- Front document -->
  <rect x="230" y="30" width="260" height="320" rx="14" fill="#fff" stroke="#1e40af" stroke-width="2"/>
  <!-- Checklist items -->
  <!-- Item 1 -->
  <rect x="270" y="75" width="24" height="24" rx="6" fill="#10b981"/>
  <path d="M277,87 l5,5 l10,-12" stroke="#fff" stroke-width="3" fill="none" stroke-linecap="round" stroke-linejoin="round"/>
  <rect x="310" y="82" width="140" height="10" rx="5" fill="#cbd5e1"/>
  <!-- Item 2 -->
  <rect x="270" y="120" width="24" height="24" rx="6" fill="#10b981"/>
  <path d="M277,132 l5,5 l10,-12" stroke="#fff" stroke-width="3" fill="none" stroke-linecap="round" stroke-linejoin="round"/>
  <rect x="310" y="127" width="120" height="10" rx="5" fill="#cbd5e1"/>
  <!-- Item 3 -->
  <rect x="270" y="165" width="24" height="24" rx="6" fill="#10b981"/>
  <path d="M277,177 l5,5 l10,-12" stroke="#fff" stroke-width="3" fill="none" stroke-linecap="round" stroke-linejoin="round"/>
  <rect x="310" y="172" width="150" height="10" rx="5" fill="#cbd5e1"/>
  <!-- Item 4 -->
  <rect x="270" y="210" width="24" height="24" rx="6" fill="#10b981"/>
  <path d="M277,222 l5,5 l10,-12" stroke="#fff" stroke-width="3" fill="none" stroke-linecap="round" stroke-linejoin="round"/>
  <rect x="310" y="217" width="110" height="10" rx="5" fill="#cbd5e1"/>
  <!-- Item 5 -->
  <rect x="270" y="255" width="24" height="24" rx="6" fill="#3b82f6" opacity="0.3"/>
  <rect x="310" y="262" width="130" height="10" rx="5" fill="#e2e8f0"/>
  <!-- Item 6 -->
  <rect x="270" y="300" width="24" height="24" rx="6" fill="#3b82f6" opacity="0.3"/>
  <rect x="310" y="307" width="100" height="10" rx="5" fill="#e2e8f0"/>
  <!-- Decorative elements -->
  <circle cx="120" cy="80" r="30" fill="#1e40af" opacity="0.1"/>
  <circle cx="680" cy="320" r="40" fill="#10b981" opacity="0.1"/>
  <circle cx="660" cy="80" r="20" fill="#f59e0b" opacity="0.15"/>
  <!-- Pen icon -->
  <g transform="translate(560, 220) rotate(30)">
    <rect x="0" y="0" width="12" height="80" rx="3" fill="#1e40af"/>
    <polygon points="0,80 12,80 6,96" fill="#1e40af"/>
    <rect x="0" y="0" width="12" height="15" rx="3" fill="#f59e0b"/>
  </g>
</svg>