<svg xmlns="http://www.w3.org/2000/svg" viewBox="0 0 800 400">
  <rect width="800" height="400" fill="#f0f4ff" rx="12"/>
  <!-- Document -->
  <rect x="80" y="110" width="140" height="180" rx="12" fill="#1e40af"/>
  <rect x="100" y="140" width="100" height="8" rx="4" fill="#93c5fd"/>
  <rect x="100" y="160" width="80" height="8" rx="4" fill="#93c5fd"/>
  <rect x="100" y="180" width="90" height="8" rx="4" fill="#93c5fd"/>
  <rect x="100" y="200" width="70" height="8" rx="4" fill="#93c5fd"/>
  <rect x="100" y="220" width="100" height="8" rx="4" fill="#93c5fd"/>
  <rect x="100" y="240" width="60" height="8" rx="4" fill="#93c5fd"/>
  <!-- Arrow 1 -->
  <polygon points="280,200 340,170 340,185 380,185 380,215 340,215 340,230" fill="#3b82f6"/>
  <!-- Factoring company circle -->
  <circle cx="450" cy="200" r="60" fill="#10b981"/>
  <path d="M430,200 l10,10 l20,-25" stroke="#fff" stroke-width="6" fill="none" stroke-linecap="round" stroke-linejoin="round"/>
  <!-- Arrow 2 -->
  <polygon points="520,200 580,170 580,185 620,185 620,215 580,215 580,230" fill="#3b82f6"/>
  <!-- Money/coins -->
  <ellipse cx="700" cy="210" rx="55" ry="20" fill="#d97706"/>
  <rect x="645" y="180" width="110" height="30" rx="0" fill="#f59e0b"/>
  <ellipse cx="700" cy="180" rx="55" ry="20" fill="#fbbf24"/>
  <ellipse cx="700" cy="180" rx="30" ry="12" fill="#f59e0b"/>
  <ellipse cx="700" cy="160" rx="55" ry="20" fill="#d97706"/>
  <rect x="645" y="130" width="110" height="30" rx="0" fill="#f59e0b"/>
  <ellipse cx="700" cy="130" rx="55" ry="20" fill="#fbbf24"/>
  <ellipse cx="700" cy="130" rx="30" ry="12" fill="#f59e0b"/>
  <!-- Decorative dots -->
  <circle cx="50" cy="50" r="8" fill="#3b82f6" opacity="0.3"/>
  <circle cx="750" cy="50" r="8" fill="#f59e0b" opacity="0.3"/>
  <circle cx="50" cy="350" r="8" fill="#10b981" opacity="0.3"/>
  <circle cx="750" cy="350" r="8" fill="#3b82f6" opacity="0.3"/>
</svg>